<svg xmlns="http://www.w3.org/2000/svg" viewBox="0 0 512 512" role="img" aria-label="Sendora logo">
  <defs>
    <linearGradient id="sendoraS" x1="0.15" y1="0.05" x2="0.9" y2="0.95">
      <stop offset="0%" stop-color="#5B21B6"/>
      <stop offset="35%" stop-color="#2563EB"/>
      <stop offset="70%" stop-color="#0891B2"/>
      <stop offset="100%" stop-color="#2DD4BF"/>
    </linearGradient>
    <linearGradient id="sendoraHighlight" x1="0" y1="0" x2="1" y2="1">
      <stop offset="0%" stop-color="#FFFFFF" stop-opacity="0.55"/>
      <stop offset="45%" stop-color="#FFFFFF" stop-opacity="0"/>
    </linearGradient>
  </defs>
  <rect width="512" height="512" rx="112" fill="#FFFFFF"/>
  <!-- Ribbon S mark -->
  <path
    fill="url(#sendoraS)"
    d="M338 146c-18-28-52-46-98-46-68 0-112 34-112 88 0 42 26 68 86 86l48 14c34 10 48 22 48 44 0 28-26 46-68 46-40 0-70-16-88-46l-46 34c28 44 76 70 136 70 78 0 130-40 130-102 0-48-28-76-92-94l-46-14c-30-8-42-18-42-36 0-24 22-40 58-40 34 0 58 14 72 38l46-36z"
  />
  <path
    fill="url(#sendoraHighlight)"
    d="M338 146c-18-28-52-46-98-46-28 0-52 6-70 18 22 8 40 24 40 52 0 34 22 54 70 68l20 6c40 12 62 28 62 58 0 8-2 16-6 22 42-18 66-52 66-98 0-48-28-76-92-94l8 16z"
    opacity="0.35"
  />
</svg>
